<svg width="48" height="48" viewBox="0 0 48 48" fill="none" xmlns="http://www.w3.org/2000/svg">
<rect x="2" y="2" width="44" height="44" rx="22" fill="#A8B1FF"/>
<rect x="2" y="2" width="44" height="44" rx="22" stroke="white" stroke-width="4"/>
<path d="M14 22.4565C14 20.2714 15.7714 18.5 17.9565 18.5C18.5895 18.5 19.1617 18.1227 19.4111 17.5408L19.7208 16.8182C20.1935 15.7152 21.2781 15 22.4782 15H24H25.5218C26.7219 15 27.8065 15.7152 28.2792 16.8182L28.5889 17.5408C28.8383 18.1227 29.4105 18.5 30.0435 18.5C32.2286 18.5 34 20.2714 34 22.4565V27.5C34 30.2614 31.7614 32.5 29 32.5H19C16.2386 32.5 14 30.2614 14 27.5V22.4565Z" stroke="white" stroke-width="1.5"/>
<circle cx="3" cy="3" r="3" transform="matrix(-1 0 0 1 27 21.5)" stroke="white" stroke-width="1.5"/>
</svg>
