<svg width="26" height="28" viewBox="0 0 26 28" fill="none" xmlns="http://www.w3.org/2000/svg">
<foreignObject x="0.875" y="0.375" width="24.25" height="27.25"><div xmlns="http://www.w3.org/1999/xhtml" style="backdrop-filter:blur(1px);clip-path:url(#bgblur_0_2543_6129_clip_path);height:100%;width:100%"></div></foreignObject><g filter="url(#filter0_di_2543_6129)" data-figma-bg-blur-radius="2">
<path d="M21 12.4167C21 17.8445 14.6 23.5 13 23.5C11.4 23.5 5 17.8445 5 12.4167C5 8.04441 8.58172 4.5 13 4.5C17.4183 4.5 21 8.04441 21 12.4167Z" fill="url(#paint0_linear_2543_6129)" shape-rendering="crispEdges"/>
<path d="M21 12.4167C21 17.8445 14.6 23.5 13 23.5C11.4 23.5 5 17.8445 5 12.4167C5 8.04441 8.58172 4.5 13 4.5C17.4183 4.5 21 8.04441 21 12.4167Z" stroke="url(#paint1_linear_2543_6129)" stroke-opacity="0.7" stroke-width="0.25" shape-rendering="crispEdges"/>
</g>
<g filter="url(#filter1_d_2543_6129)">
<circle cx="3" cy="3" r="3" transform="matrix(-1 0 0 1 16 9)" fill="#4053FF"/>
</g>
<defs>
<filter id="filter0_di_2543_6129" x="0.875" y="0.375" width="24.25" height="27.25" filterUnits="userSpaceOnUse" color-interpolation-filters="sRGB">
<feFlood flood-opacity="0" result="BackgroundImageFix"/>
<feColorMatrix in="SourceAlpha" type="matrix" values="0 0 0 0 0 0 0 0 0 0 0 0 0 0 0 0 0 0 127 0" result="hardAlpha"/>
<feOffset/>
<feGaussianBlur stdDeviation="2"/>
<feComposite in2="hardAlpha" operator="out"/>
<feColorMatrix type="matrix" values="0 0 0 0 0.231373 0 0 0 0 0.407843 0 0 0 0 1 0 0 0 0.1 0"/>
<feBlend mode="normal" in2="BackgroundImageFix" result="effect1_dropShadow_2543_6129"/>
<feBlend mode="normal" in="SourceGraphic" in2="effect1_dropShadow_2543_6129" result="shape"/>
<feColorMatrix in="SourceAlpha" type="matrix" values="0 0 0 0 0 0 0 0 0 0 0 0 0 0 0 0 0 0 127 0" result="hardAlpha"/>
<feOffset/>
<feGaussianBlur stdDeviation="1.5"/>
<feComposite in2="hardAlpha" operator="arithmetic" k2="-1" k3="1"/>
<feColorMatrix type="matrix" values="0 0 0 0 0.231373 0 0 0 0 0.407843 0 0 0 0 1 0 0 0 0.38 0"/>
<feBlend mode="normal" in2="shape" result="effect2_innerShadow_2543_6129"/>
</filter>
<clipPath id="bgblur_0_2543_6129_clip_path" transform="translate(-0.875 -0.375)"><path d="M21 12.4167C21 17.8445 14.6 23.5 13 23.5C11.4 23.5 5 17.8445 5 12.4167C5 8.04441 8.58172 4.5 13 4.5C17.4183 4.5 21 8.04441 21 12.4167Z"/>
</clipPath><filter id="filter1_d_2543_6129" x="8" y="7" width="10" height="10" filterUnits="userSpaceOnUse" color-interpolation-filters="sRGB">
<feFlood flood-opacity="0" result="BackgroundImageFix"/>
<feColorMatrix in="SourceAlpha" type="matrix" values="0 0 0 0 0 0 0 0 0 0 0 0 0 0 0 0 0 0 127 0" result="hardAlpha"/>
<feOffset/>
<feGaussianBlur stdDeviation="1"/>
<feComposite in2="hardAlpha" operator="out"/>
<feColorMatrix type="matrix" values="0 0 0 0 0.231373 0 0 0 0 0.407843 0 0 0 0 1 0 0 0 0.35 0"/>
<feBlend mode="normal" in2="BackgroundImageFix" result="effect1_dropShadow_2543_6129"/>
<feBlend mode="normal" in="SourceGraphic" in2="effect1_dropShadow_2543_6129" result="shape"/>
</filter>
<linearGradient id="paint0_linear_2543_6129" x1="-0.2" y1="-3.1" x2="33.7786" y2="22.4202" gradientUnits="userSpaceOnUse">
<stop stop-color="#0011A8" stop-opacity="0.26"/>
<stop offset="0.505208" stop-color="#7583FF" stop-opacity="0.12"/>
<stop offset="1" stop-color="#A8B1FF" stop-opacity="0.04"/>
</linearGradient>
<linearGradient id="paint1_linear_2543_6129" x1="5.4" y1="7.35" x2="21.3669" y2="18.875" gradientUnits="userSpaceOnUse">
<stop stop-color="white" stop-opacity="0.15"/>
<stop offset="1" stop-color="white" stop-opacity="0.44"/>
</linearGradient>
</defs>
</svg>
